<svg xmlns="http://www.w3.org/2000/svg" width="136" height="40" viewBox="0 0 136 40">
    <defs>
        <linearGradient id="prefix__a" x1="61.03%" x2="26.463%" y1="4.95%" y2="71.926%">
            <stop offset="0%" stop-color="#00A0FF"/>
            <stop offset=".657%" stop-color="#00A1FF"/>
            <stop offset="26.01%" stop-color="#00BEFF"/>
            <stop offset="51.22%" stop-color="#00D2FF"/>
            <stop offset="76.04%" stop-color="#00DFFF"/>
            <stop offset="100%" stop-color="#00E3FF"/>
        </linearGradient>
        <linearGradient id="prefix__b" x1="107.63%" x2="-130.552%" y1="50%" y2="50%">
            <stop offset="0%" stop-color="#FFE000"/>
            <stop offset="40.87%" stop-color="#FFBD00"/>
            <stop offset="77.54%" stop-color="orange"/>
            <stop offset="100%" stop-color="#FF9C00"/>
        </linearGradient>
        <linearGradient id="prefix__c" x1="86.243%" x2="-50.129%" y1="30.904%" y2="136.019%">
            <stop offset="0%" stop-color="#FF3A44"/>
            <stop offset="100%" stop-color="#C31162"/>
        </linearGradient>
        <linearGradient id="prefix__d" x1="-18.811%" x2="42.085%" y1="-11.825%" y2="35.087%">
            <stop offset="0%" stop-color="#32A071"/>
            <stop offset="6.85%" stop-color="#2DA771"/>
            <stop offset="47.62%" stop-color="#15CF74"/>
            <stop offset="80.09%" stop-color="#06E775"/>
            <stop offset="100%" stop-color="#00F076"/>
        </linearGradient>
    </defs>
    <g fill="none" fill-rule="evenodd">
        <path fill="#000" fill-rule="nonzero" d="M130.534 40H5.022C2.254 40 0 37.746 0 35V5c0-2.756 2.254-5 5.022-5h125.512c2.765 0 5.022 2.244 5.022 5v30c0 2.746-2.257 5-5.022 5z"/>
        <path fill="#A6A6A6" d="M130.534.8c2.321 0 4.222 1.888 4.222 4.2v30c0 2.312-1.888 4.2-4.222 4.2H5.022C2.701 39.2.8 37.312.8 35V5C.8 2.688 2.688.8 5.022.8h125.512zm0-.8H5.022C2.254 0 0 2.254 0 5v30c0 2.756 2.254 5 5.022 5h125.512c2.765 0 5.022-2.244 5.022-5V5c0-2.746-2.257-5-5.022-5z"/>
        <path fill="#FFF" fill-rule="nonzero" d="M71.411 13.232c-.905 0-1.668-.317-2.271-.94-.599-.606-.933-1.442-.918-2.294 0-.91.31-1.681.918-2.292.6-.624 1.364-.94 2.269-.94.895 0 1.658.316 2.272.94.608.63.918 1.401.918 2.292-.01.912-.32 1.683-.918 2.291-.601.629-1.364.943-2.27.943zm-26.935 0c-.885 0-1.653-.312-2.281-.928-.624-.613-.94-1.389-.94-2.304 0-.915.316-1.69.94-2.304.615-.616 1.384-.928 2.281-.928.44 0 .866.087 1.275.264.401.172.728.407.97.694l.06.072-.676.663-.07-.082c-.382-.454-.893-.676-1.569-.676-.603 0-1.13.215-1.563.639-.437.426-.659.985-.659 1.66 0 .676.222 1.235.659 1.661.434.424.96.639 1.563.639.644 0 1.185-.215 1.606-.639.25-.249.404-.598.46-1.04h-2.168v-.932h3.097l.013.085c.022.157.045.319.045.468 0 .86-.26 1.556-.773 2.07-.584.609-1.347.918-2.27.918zM80.29 13.1h-.955L76.41 8.419l.025.843v3.835h-.955V6.9h1.09l.03.048 2.75 4.409-.025-.84V6.9h.965v6.2zm-16.055 0h-.967V7.833h-1.678V6.9h4.321v.933h-1.678V13.1h.002zm-3.434 0h-.965V6.9h.965v6.2zm-5.423 0h-.966V7.833h-1.678V6.9h4.322v.933h-1.678V13.1zm-3.255-.01h-3.7V6.9h3.7v.933H49.39v1.7h2.466v.923H49.39v1.701h2.733v.933zm17.726-1.44c.431.432.955.65 1.563.65.626 0 1.138-.213 1.564-.65.424-.423.638-.98.638-1.65 0-.67-.214-1.23-.635-1.65-.432-.432-.958-.65-1.564-.65-.626 0-1.137.213-1.561.65-.424.423-.639.98-.639 1.65 0 .67.212 1.23.634 1.65z"/>
        <path fill="#FFF" d="M68.132 21.756c-2.356 0-4.267 1.788-4.267 4.254 0 2.444 1.923 4.254 4.267 4.254 2.357 0 4.267-1.8 4.267-4.254 0-2.466-1.91-4.254-4.267-4.254zm0 6.823c-1.29 0-2.399-1.068-2.399-2.579 0-1.534 1.112-2.579 2.4-2.579 1.288 0 2.398 1.045 2.398 2.579.003 1.521-1.11 2.579-2.399 2.579zm-9.31-6.823c-2.356 0-4.266 1.788-4.266 4.254 0 2.444 1.923 4.254 4.267 4.254 2.357 0 4.267-1.8 4.267-4.254 0-2.466-1.913-4.254-4.267-4.254zm0 6.823c-1.288 0-2.398-1.068-2.398-2.579 0-1.534 1.112-2.579 2.399-2.579 1.29 0 2.399 1.045 2.399 2.579 0 1.521-1.11 2.579-2.4 2.579zm-11.076-5.524v1.8h4.321c-.132 1.01-.466 1.756-.977 2.267-.634.634-1.611 1.322-3.334 1.322-2.656 0-4.734-2.145-4.734-4.8 0-2.656 2.078-4.801 4.734-4.801 1.434 0 2.478.566 3.254 1.29l1.277-1.278c-1.078-1.032-2.511-1.823-4.521-1.823-3.644 0-6.701 2.968-6.701 6.601 0 3.644 3.055 6.601 6.7 6.601 1.968 0 3.444-.643 4.612-1.855 1.19-1.19 1.566-2.868 1.566-4.222 0-.421-.033-.8-.1-1.122h-6.1c.003-.003.003.02.003.02zm45.309 1.401c-.357-.955-1.434-2.71-3.644-2.71-2.19 0-4.01 1.723-4.01 4.254 0 2.389 1.801 4.254 4.222 4.254 1.946 0 3.078-1.19 3.544-1.887l-1.444-.968c-.479.71-1.144 1.177-2.09 1.177-.955 0-1.623-.434-2.067-1.29l5.688-2.356c0 .003-.2-.474-.2-.474zm-5.8 1.422c-.046-1.644 1.276-2.479 2.221-2.479.746 0 1.367.367 1.579.9l-3.8 1.579zM82.632 30h1.868V17.501h-1.868V30zm-3.067-7.3H79.5c-.422-.5-1.222-.954-2.245-.954-2.122 0-4.077 1.867-4.077 4.266 0 2.39 1.945 4.235 4.077 4.235 1.01 0 1.823-.456 2.245-.968h.067v.611c0 1.624-.868 2.499-2.267 2.499-1.144 0-1.855-.823-2.144-1.511l-1.624.678c.467 1.122 1.71 2.511 3.766 2.511 2.19 0 4.045-1.289 4.045-4.434V22h-1.766v.7h-.01zm-2.145 5.879c-1.289 0-2.366-1.078-2.366-2.567 0-1.5 1.077-2.588 2.366-2.588 1.277 0 2.267 1.1 2.267 2.588.013 1.49-.987 2.567-2.267 2.567zm24.38-11.078h-4.467V30h1.868v-4.733h2.601c2.067 0 4.1-1.499 4.1-3.878s-2.025-3.888-4.103-3.888zm.054 6.02H99.2v-4.29h2.655c1.4 0 2.19 1.156 2.19 2.146 0 .98-.8 2.144-2.19 2.144zm11.534-1.788c-1.357 0-2.756.601-3.334 1.91l1.656.689c.356-.689 1.01-.923 1.7-.923.968 0 1.946.579 1.968 1.611v.132c-.334-.19-1.067-.479-1.945-.479-1.788 0-3.601.978-3.601 2.81 0 1.68 1.466 2.756 3.1 2.756 1.254 0 1.945-.566 2.376-1.222h.068v.968h1.8v-4.788c0-2.23-1.656-3.464-3.788-3.464zm-.234 6.846c-.611 0-1.467-.3-1.467-1.068 0-.967 1.068-1.334 1.978-1.334.823 0 1.212.177 1.7.422-.134 1.122-1.082 1.97-2.211 1.98zM123.745 22l-2.144 5.421h-.067L119.312 22h-2.01l3.334 7.579-1.9 4.212h1.945L125.81 22h-2.065zm-16.812 8h1.867V17.501h-1.867V30z"/>
        <path fill="url(#prefix__a)" d="M10.434 7.534c-.29.311-.456.788-.456 1.411v22.112c0 .624.167 1.1.466 1.4l.077.067 12.39-12.39v-.276L10.51 7.466l-.077.068z"/>
        <path fill="url(#prefix__b)" d="M27.032 24.277L22.9 20.145v-.29l4.132-4.132.09.055 4.888 2.778c1.399.788 1.399 2.09 0 2.888l-4.888 2.778-.09.055z"/>
        <path fill="url(#prefix__c)" d="M27.122 24.222L22.9 20 10.434 32.466c.456.49 1.222.544 2.077.068l14.611-8.312"/>
        <path fill="url(#prefix__d)" d="M27.122 15.778l-14.61-8.3c-.856-.488-1.624-.42-2.078.068L22.9 20l4.222-4.222z"/>
        <path fill="#000" fill-rule="nonzero" d="M27.032 24.132l-14.51 8.245c-.811.466-1.534.433-2 .01l-.078.077.077.067c.467.422 1.19.457 2-.01l14.611-8.3-.1-.089z" opacity=".2"/>
        <path fill="#000" fill-rule="nonzero" d="M32.01 21.3l-4.99 2.832.09.09 4.888-2.778c.7-.4 1.044-.923 1.044-1.444-.042.479-.399.933-1.032 1.3z" opacity=".12"/>
        <path fill="#FFF" d="M12.511 7.623L32.01 18.701c.633.356.99.823 1.045 1.299 0-.521-.344-1.045-1.045-1.444L12.511 7.48c-1.399-.8-2.533-.132-2.533 1.466v.145c0-1.601 1.134-2.257 2.533-1.467z" opacity=".25"/>
    </g>
</svg>
