<svg xmlns="http://www.w3.org/2000/svg" width="131" height="40" viewBox="0 0 131 40">
    <g fill="none" fill-rule="evenodd">
        <path fill="#F54436" d="M0 0H131V40H0z"/>
        <g fill="#FFF" fill-rule="nonzero">
            <g>
                <path d="M.377.345c-.27.333-.403.757-.373 1.185v18.716c-.029.432.114.858.398 1.185l.06.068L10.92 11.015v-.254L.436.286l-.06.059z" transform="translate(10 7) translate(0 2)"/>
                <path fill-opacity=".6" d="M14.389 14.51l-3.47-3.495v-.254l3.47-3.495.076.051L18.62 9.67c1.184.668 1.184 1.768 0 2.445l-4.138 2.352-.093.043z" transform="translate(10 7) translate(0 2)"/>
                <path fill-opacity=".4" d="M14.49 14.467l-3.57-3.579L.377 21.431c.493.44 1.23.464 1.751.06l12.362-7.024" transform="translate(10 7) translate(0 2)"/>
                <path fill-opacity=".8" d="M14.49 7.317L2.128.294C1.61-.116.871-.095.377.344L10.92 10.889l3.57-3.57z" transform="translate(10 7) translate(0 2)"/>
            </g>
            <g>
                <g stroke="#FFF" stroke-width=".2">
                    <path d="M6.071 3.371c.033.741-.238 1.463-.75 2-.575.593-1.375.913-2.2.88-.83.018-1.63-.307-2.21-.9-.599-.581-.929-1.386-.91-2.22-.021-.838.308-1.646.91-2.23.91-.89 2.267-1.146 3.44-.65.36.148.682.377.94.67l-.53.53c-.403-.485-1.01-.752-1.64-.72-.631-.003-1.236.251-1.676.704C1.005 1.888.769 2.5.791 3.13c-.013.953.548 1.82 1.423 2.2.875.378 1.892.193 2.577-.47.308-.334.489-.766.51-1.22h-2.18v-.72h2.91c.022.15.036.3.04.45zM10.651.871L7.951.871 7.951 2.771 10.411 2.771 10.411 3.491 7.951 3.491 7.951 5.391 10.651 5.391 10.651 6.131 7.171 6.131 7.171.131 10.651.131zM13.931 6.131L13.161 6.131 13.161.871 11.481.871 11.481.131 15.651.131 15.651.871 13.931.871zM18.591 6.131L18.591.131 19.361.131 19.361 6.131zM22.781 6.131L22.011 6.131 22.011.871 20.331.871 20.331.131 24.451.131 24.451.871 22.781.871zM32.261 5.351c-.583.584-1.375.912-2.2.912-.825 0-1.617-.328-2.2-.912-.588-.586-.907-1.39-.88-2.22-.027-.83.292-1.634.88-2.22.571-.601 1.37-.932 2.2-.91.827-.013 1.624.316 2.2.91.58.59.898 1.392.88 2.22.027.83-.292 1.634-.88 2.22h0zm-3.83-.5c.43.436 1.017.682 1.63.682s1.2-.246 1.63-.682c.448-.459.69-1.08.67-1.72.009-.646-.248-1.268-.71-1.72-.43-.436-1.017-.682-1.63-.682s-1.2.246-1.63.682c-.433.465-.66 1.085-.63 1.72-.02.64.222 1.261.67 1.72h0zM34.231 6.131L34.231.131 35.161.131 38.081 4.801 38.081 4.801 38.081 3.641 38.081.131 38.851.131 38.851 6.131 38.051 6.131 35.001 1.241 35.001 1.241 35.001 2.391 35.001 6.131z" transform="translate(10 7) translate(26)"/>
                </g>
                <path d="M27.267 13.704c-2.353.005-4.255 1.916-4.25 4.268.006 2.352 1.917 4.254 4.27 4.249 2.353-.006 4.256-1.917 4.25-4.269.017-1.135-.429-2.228-1.234-3.03-.805-.8-1.9-1.24-3.036-1.218zm0 6.827c-1.057.074-2.051-.505-2.508-1.46-.457-.956-.283-2.094.439-2.87.722-.775 1.844-1.03 2.83-.644.987.386 1.636 1.336 1.64 2.395.032.663-.205 1.31-.657 1.796-.452.485-1.08.768-1.744.783zm-9.32-6.827c-2.353.005-4.255 1.916-4.25 4.268.006 2.352 1.917 4.254 4.27 4.249 2.353-.006 4.256-1.917 4.25-4.269.017-1.135-.429-2.228-1.234-3.03-.805-.8-1.9-1.24-3.036-1.218zm0 6.827c-1.057.074-2.051-.505-2.508-1.46-.457-.956-.283-2.094.439-2.87.722-.775 1.844-1.03 2.83-.644.987.386 1.636 1.336 1.64 2.395.032.663-.205 1.31-.657 1.796-.452.485-1.08.768-1.744.783zm-11.08-5.518v1.8h4.32c-.068.847-.42 1.647-1 2.269-.876.892-2.09 1.372-3.34 1.32-2.65 0-4.8-2.149-4.8-4.8 0-2.65 2.15-4.798 4.8-4.798 1.22-.018 2.399.446 3.28 1.29l1.27-1.27c-1.204-1.19-2.837-1.846-4.53-1.819-2.421-.094-4.7 1.143-5.938 3.225-1.239 2.082-1.239 4.674 0 6.756 1.238 2.082 3.517 3.319 5.938 3.225 1.73.069 3.408-.604 4.61-1.85 1.05-1.153 1.61-2.67 1.56-4.228.004-.375-.026-.75-.09-1.12h-6.08zm45.31 1.4c-.534-1.57-1.982-2.648-3.64-2.71-1.106-.002-2.163.454-2.92 1.259-.758.805-1.15 1.887-1.08 2.99-.018 1.874 1.201 3.537 2.994 4.084 1.793.548 3.733-.15 4.766-1.715l-1.45-1c-.44.734-1.235 1.179-2.09 1.17-.887.037-1.706-.475-2.06-1.29l5.69-2.348-.21-.44zm-5.8 1.42c-.04-.627.173-1.243.593-1.71.42-.467 1.01-.744 1.637-.77.657-.042 1.275.312 1.57.9l-3.8 1.58zm-4.62 4.118h1.87V9.455h-1.87V21.95zm-3.06-7.298h-.07c-.574-.625-1.391-.971-2.24-.95-2.27.11-4.054 1.982-4.054 4.254 0 2.272 1.784 4.144 4.054 4.254.858.017 1.68-.35 2.24-1h.07v.61c0 1.63-.87 2.5-2.27 2.5-.956-.022-1.806-.618-2.15-1.51l-1.62.67c.613 1.539 2.113 2.54 3.77 2.519 2.19 0 4-1.29 4-4.429v-7.618h-1.73v.7zm-2.15 5.878c-1.36-.084-2.42-1.212-2.42-2.574 0-1.362 1.06-2.49 2.42-2.574.647.028 1.255.317 1.685.801.43.485.644 1.123.595 1.768.055.648-.157 1.29-.588 1.777-.43.488-1.042.777-1.692.802zm24.39-11.076h-4.48V21.95h1.87v-4.739h2.61c1.453.105 2.842-.61 3.6-1.854.758-1.243.758-2.806 0-4.049-.758-1.243-2.147-1.958-3.6-1.854zm0 5.998h-2.61v-4.259h2.65c1.182 0 2.14.958 2.14 2.14 0 1.181-.958 2.139-2.14 2.139l-.04-.02zm11.54-1.79c-1.392-.085-2.701.666-3.33 1.91l1.65.69c.34-.614 1.01-.97 1.71-.91.48-.056.962.083 1.338.386.376.302.614.743.662 1.223v.12c-.601-.316-1.27-.48-1.95-.48-1.78 0-3.6 1-3.6 2.82.036.781.387 1.515.973 2.033s1.357.776 2.137.716c.955.053 1.865-.413 2.38-1.22h.06v1h1.8v-4.809c0-2.189-1.66-3.458-3.79-3.458l-.04-.02zm-.23 6.848c-.61 0-1.46-.31-1.46-1.06 0-.999 1.06-1.339 2-1.339.594-.015 1.181.13 1.7.42-.13 1.123-1.07 1.977-2.2 2l-.04-.02zm10.62-6.558l-2.14 5.419h-.06l-2.22-5.419h-2l3.33 7.578-1.9 4.209h2l5.07-11.787h-2.08zm-16.8 7.998h1.86V9.455h-1.86V21.95z" transform="translate(10 7) translate(26)"/>
            </g>
        </g>
        <path fill="#000" fill-rule="nonzero" d="M27 24.13l-14.49 8.25c-.592.447-1.408.447-2 0l-.07.07.07.08c.592.447 1.408.447 2 0l14.61-8.3-.12-.1z" opacity=".2"/>
        <path fill="#000" fill-rule="nonzero" d="M10.44 32.32c-.321-.397-.479-.901-.44-1.41v.15c-.034.51.135 1.014.47 1.4l.07-.07-.1-.07zM32 21.3l-5 2.83.09.1L32 21.44c.59-.25.997-.802 1.06-1.44-.127.577-.52 1.06-1.06 1.3z" opacity=".12"/>
    </g>
</svg>
