<svg xmlns="http://www.w3.org/2000/svg" width="120" height="40" viewBox="0 0 120 40">
    <g fill="none" fill-rule="evenodd">
        <path fill="#F54436" d="M0 0H120V40H0z"/>
        <g fill="#FFF" fill-rule="nonzero">
            <path d="M2.155.294c.79-.057 1.562.244 2.106.818.544.574.801 1.362.702 2.147 0 1.906-1.03 3.002-2.808 3.002H0V.294h2.155zM.927 5.417h1.125c.564.034 1.113-.188 1.494-.605.382-.416.556-.982.474-1.541.076-.556-.1-1.118-.481-1.53-.381-.414-.926-.635-1.487-.604H.927v4.28zM6.01 4.007c-.077-.807.31-1.588.998-2.015.69-.428 1.561-.428 2.25 0 .689.427 1.076 1.208.999 2.015.079.808-.308 1.591-.998 2.02-.69.428-1.562.428-2.252 0-.69-.429-1.076-1.212-.997-2.02zm3.333 0c0-.976-.439-1.547-1.208-1.547-.773 0-1.207.571-1.207 1.547 0 .984.434 1.55 1.207 1.55.77 0 1.208-.57 1.208-1.55zM15.902 6.261L14.98 6.261 14.05 2.944 13.979 2.944 13.053 6.261 12.14 6.261 10.898 1.758 11.8 1.758 12.606 5.194 12.673 5.194 13.599 1.758 14.451 1.758 15.377 5.194 15.447 5.194 16.25 1.758 17.139 1.758zM18.183 1.758h.855v.715h.066c.231-.527.771-.849 1.344-.802.444-.033.879.137 1.182.463.303.325.442.771.377 1.212V6.26h-.889V3.569c0-.724-.314-1.084-.972-1.084-.3-.014-.593.104-.8.324-.206.22-.307.518-.275.817v2.635h-.888V1.758zM23.423 0L24.312 0 24.312 6.261 23.423 6.261zM25.547 4.007c-.077-.807.31-1.588.999-2.015.689-.428 1.56-.428 2.25 0 .689.427 1.076 1.208.998 2.015.079.808-.308 1.591-.997 2.02-.69.428-1.563.428-2.252 0-.69-.429-1.077-1.212-.998-2.02zm3.333 0c0-.976-.439-1.547-1.208-1.547-.773 0-1.207.571-1.207 1.547 0 .984.434 1.55 1.207 1.55.77 0 1.208-.57 1.208-1.55zM30.73 4.987c0-.81.604-1.278 1.675-1.344l1.22-.07v-.389c0-.475-.315-.744-.922-.744-.496 0-.84.182-.939.5h-.86c.09-.773.818-1.27 1.84-1.27 1.129 0 1.765.563 1.765 1.514v3.077h-.855v-.633h-.07c-.291.462-.808.732-1.353.707-.382.04-.764-.084-1.05-.34-.285-.258-.45-.623-.451-1.008zm2.895-.384v-.377l-1.1.07c-.62.042-.901.253-.901.65 0 .405.351.64.835.64.286.03.571-.059.791-.244.22-.186.355-.452.375-.74zM35.677 4.007c0-1.423.732-2.324 1.87-2.324.574-.026 1.112.281 1.38.79h.067V0h.888v6.26h-.851v-.71h-.07c-.29.504-.834.806-1.415.785-1.145 0-1.869-.901-1.869-2.328zm.918 0c0 .955.45 1.53 1.203 1.53.75 0 1.212-.583 1.212-1.526 0-.938-.467-1.53-1.212-1.53-.748 0-1.203.58-1.203 1.526zM43.56 4.007c-.078-.807.309-1.588.998-2.015.689-.428 1.56-.428 2.25 0 .688.427 1.075 1.208.998 2.015.079.808-.308 1.591-.997 2.02-.69.428-1.563.428-2.252 0-.69-.429-1.077-1.212-.998-2.02zm3.332 0c0-.976-.438-1.547-1.208-1.547-.772 0-1.207.571-1.207 1.547 0 .984.435 1.55 1.207 1.55.77 0 1.208-.57 1.208-1.55zM48.999 1.758h.855v.715h.066c.231-.527.771-.849 1.344-.802.444-.033.879.137 1.182.463.303.325.442.771.377 1.212V6.26h-.889V3.569c0-.724-.314-1.084-.972-1.084-.3-.014-.593.104-.8.324-.206.22-.307.518-.275.817v2.635H49V1.758zM57.844.637v1.141h.976v.749h-.976v2.315c0 .472.195.679.637.679.113 0 .226-.008.339-.021v.74c-.16.029-.321.044-.484.046-.988 0-1.381-.348-1.381-1.216V2.527h-.715v-.749h.715V.637h.89zM60.034 0h.88v2.481h.07c.243-.53.792-.853 1.374-.806.441-.024.87.15 1.17.474.3.325.44.767.38 1.205V6.26h-.889V3.573c0-.72-.335-1.084-.963-1.084-.309-.025-.614.087-.832.307-.219.22-.33.526-.302.835v2.63h-.888V0zM69.09 5.045c-.249.85-1.07 1.398-1.95 1.303-.601.016-1.178-.233-1.579-.68-.4-.449-.584-1.05-.502-1.645-.08-.596.103-1.198.501-1.65.399-.45.973-.707 1.575-.702 1.253 0 2.009.856 2.009 2.27v.31h-3.18v.05c-.028.334.086.664.315.91.228.246.55.384.885.38.434.052.858-.164 1.07-.546h.856zm-3.126-1.451h2.275c.022-.306-.085-.607-.296-.829-.211-.222-.506-.345-.813-.338-.31-.004-.61.118-.829.338-.22.22-.34.518-.337.829z" transform="translate(34 8)"/>
        </g>
        <path fill="#FFF" fill-rule="nonzero" d="M23.09 14.307l.283.018c1.622.05 3.125.858 4.055 2.18-1.468.897-2.372 2.48-2.394 4.195.002 1.939 1.17 3.689 2.966 4.444-.345 1.116-.866 2.17-1.543 3.124-.908 1.352-1.861 2.672-3.373 2.697-1.47.034-1.964-.86-3.649-.86-1.7 0-2.227.836-3.636.894-1.44.053-2.541-1.443-3.483-2.782-1.882-2.734-3.348-7.706-1.383-11.089.923-1.649 2.648-2.695 4.545-2.756 1.441-.03 2.78.968 3.666.968.87 0 2.523-1.193 4.23-1.015zM23.39 9c.098 1.277-.308 2.542-1.132 3.527-.8.989-2.012 1.559-3.289 1.546-.081-1.24.337-2.462 1.162-3.396.836-.947 2-1.545 3.26-1.677z"/>
        <g fill="#FFF" fill-rule="nonzero">
            <path d="M7.875 9.269H3.142l-1.137 3.356H0L4.483.207h2.083l4.484 12.418H9.01L7.876 9.27zm-4.243-1.55h3.752l-1.85-5.446h-.052L3.632 7.72zM20.732 8.099c0 2.813-1.505 4.62-3.778 4.62-1.175.062-2.28-.553-2.849-1.583h-.043v4.484h-1.858V3.571h1.799v1.506h.034c.593-1.024 1.7-1.639 2.883-1.6 2.298 0 3.812 1.816 3.812 4.622zm-1.91 0c0-1.833-.947-3.038-2.392-3.038-1.42 0-2.375 1.23-2.375 3.038 0 1.824.955 3.046 2.375 3.046 1.445 0 2.392-1.197 2.392-3.046zM30.697 8.099c0 2.813-1.506 4.62-3.778 4.62-1.175.062-2.281-.553-2.849-1.583h-.043v4.484H22.17V3.571h1.799v1.506h.034c.593-1.024 1.7-1.639 2.883-1.6 2.298 0 3.812 1.816 3.812 4.622zm-1.91 0c0-1.833-.947-3.038-2.392-3.038-1.42 0-2.375 1.23-2.375 3.038 0 1.824.955 3.046 2.375 3.046 1.445 0 2.392-1.197 2.392-3.046zM37.283 9.165c.138 1.232 1.334 2.04 2.969 2.04 1.566 0 2.693-.809 2.693-1.919 0-.964-.68-1.54-2.289-1.936l-1.61-.388c-2.28-.55-3.338-1.617-3.338-3.348C35.708 1.472 37.575 0 40.227 0c2.624 0 4.422 1.472 4.483 3.614h-1.876c-.112-1.239-1.137-1.987-2.634-1.987-1.497 0-2.521.757-2.521 1.858 0 .878.654 1.395 2.255 1.79l1.368.336c2.548.603 3.606 1.626 3.606 3.443 0 2.323-1.85 3.778-4.794 3.778-2.754 0-4.613-1.42-4.733-3.667h1.902zM48.919 1.429V3.57h1.722v1.472h-1.722v4.991c0 .776.345 1.137 1.102 1.137.204-.004.408-.018.61-.043v1.463c-.34.063-.685.092-1.031.086-1.833 0-2.548-.689-2.548-2.445V5.043h-1.317V3.571h1.317V1.43h1.867zM51.638 8.099c0-2.849 1.677-4.639 4.294-4.639 2.625 0 4.295 1.79 4.295 4.639 0 2.856-1.662 4.638-4.295 4.638s-4.294-1.782-4.294-4.638zm6.695 0c0-1.954-.895-3.108-2.401-3.108-1.506 0-2.4 1.162-2.4 3.108 0 1.962.894 3.106 2.4 3.106 1.506 0 2.401-1.144 2.401-3.106zM61.759 3.571h1.772v1.541h.043c.247-.992 1.156-1.674 2.178-1.635.214-.001.428.022.637.069v1.738c-.27-.082-.553-.12-.835-.112-.547-.022-1.075.195-1.448.596-.372.4-.55.944-.489 1.487v5.37H61.76V3.571zM74.957 9.966c-.25 1.643-1.85 2.771-3.898 2.771-2.634 0-4.269-1.764-4.269-4.595 0-2.84 1.644-4.682 4.19-4.682 2.505 0 4.08 1.72 4.08 4.466v.637h-6.394v.112c-.06.674.173 1.341.639 1.832.466.49 1.12.757 1.797.732.901.085 1.752-.433 2.09-1.273h1.765zm-6.282-2.702H73.2c.034-.606-.187-1.198-.608-1.634-.422-.437-1.006-.677-1.613-.664-.61-.004-1.198.237-1.631.668-.433.432-.676 1.018-.674 1.63z" transform="translate(34 18)"/>
        </g>
    </g>
</svg>
