<svg xmlns="http://www.w3.org/2000/svg" width="22" height="22" viewBox="0 0 22 22">
    <path fill="#F54436" d="M17.042 22c1.532 0 2.865-.535 3.936-1.729.636-.696 1.022-1.504 1.022-2.3 0-.61-.224-1.194-.797-1.592l-3.625-2.562c-.549-.398-1.022-.585-1.445-.585-.549 0-1.022.311-1.57.846l-.835.833c-.137.137-.299.174-.46.174-.175 0-.35-.062-.474-.124-.735-.386-1.993-1.468-3.152-2.624-1.17-1.17-2.242-2.413-2.628-3.146-.063-.125-.137-.299-.137-.473 0-.15.05-.311.186-.448l.835-.858c.523-.535.835-1.02.835-1.567 0-.423-.187-.883-.573-1.443L5.618.833C5.195.261 4.597 0 3.95 0c-.785 0-1.582.36-2.28 1.02C.511 2.127 0 3.482 0 4.987c0 3.408 2.604 7.524 6.03 10.932C9.467 19.35 13.64 22 17.041 22z"/>
</svg>
