<svg xmlns="http://www.w3.org/2000/svg" xmlns:xlink="http://www.w3.org/1999/xlink" width="150" height="34" viewBox="0 0 150 34">
    <defs>
        <path id="prefix__a" d="M12.738 0C5.703 0 0 5.703 0 12.738c0 11.634 12.738 18.898 12.738 18.898s12.738-7.264 12.738-18.898c0-3.378-1.342-6.618-3.731-9.007C19.356 1.342 16.116 0 12.738 0z"/>
    </defs>
    <g fill="none" fill-rule="evenodd">
        <ellipse cx="12.738" cy="31.636" fill="#F54436" fill-opacity=".2" fill-rule="nonzero" rx="9.821" ry="2.34"/>
        <mask id="prefix__b" fill="#fff">
            <use xlink:href="#prefix__a"/>
        </mask>
        <use fill="#F54436" fill-rule="nonzero" xlink:href="#prefix__a"/>
        <path fill="#000" fill-opacity=".08" fill-rule="nonzero" d="M12.738 0C8.586-.002 4.695 2.022 2.312 5.422c3.89-2.728 8.976-3.065 13.191-.873 4.216 2.191 6.862 6.547 6.863 11.299 0 5.09-2.438 9.344-5.182 12.518 3.675-3.204 8.294-8.625 8.294-15.63 0-3.379-1.343-6.618-3.732-9.007C19.356 1.341 16.116 0 12.738 0z" mask="url(#prefix__b)"/>
        <path fill="#FFF" fill-rule="nonzero" d="M22.352 17.387c1.366 0 2.565 1.108 2.677 2.475.112 1.367-.905 2.474-2.272 2.474-1.366 0-2.565-1.108-2.677-2.474-.112-1.367.905-2.475 2.272-2.475zm.102 1.238c-.321-.006-.629.126-.846.363-.217.236-.323.554-.29.874.067.692.643 1.224 1.338 1.237.321.005.63-.127.847-.363.217-.237.323-.555.29-.874-.067-.693-.643-1.226-1.339-1.237zm-9.045 1.993l2.762.187h-2.8c.015-.062.027-.124.038-.187zm-4.3-11.83c4.58.015 9.158.004 13.738.015.569.012 1.136.06 1.7.144.583.077.993.382 1.244.97.563 1.32 1.01 2.666 1.223 4.052.216 1.408.343 2.825.461 4.237.078.927-.662 1.652-1.598 1.646v-.059c-.148-1.797-1.732-3.26-3.53-3.26-.865-.011-1.695.34-2.29.967-.594.628-.899 1.476-.84 2.338h-6.018v-.045c-.148-1.797-1.732-3.26-3.53-3.26-.86-.01-1.687.337-2.281.96-.594.622-.902 1.464-.851 2.323-.883-.08-1.717-.844-1.795-1.723-.089-1.003-.226-2.01-.233-3.007-.003-.513.131-1.018.389-1.463.86-1.413 1.785-2.784 2.711-4.154.333-.498.852-.682 1.5-.682zm9.387 1.567h-.845c-.09 0-.174.04-.234.106-.06.067-.087.157-.077.245l.112 1.002h-1.046c-.09 0-.175.04-.234.107-.06.067-.088.156-.078.244l.095.79c.018.16.155.281.316.28h1.115l.12 1.07c.018.159.151.28.311.281h.845c.09 0 .175-.04.234-.107.06-.067.087-.156.077-.245l-.111-1h1.046c.086-.005.167-.042.225-.107.058-.064.087-.149.08-.235l-.089-.798c-.017-.16-.151-.28-.311-.282H18.93l-.12-1.07c-.017-.16-.153-.282-.315-.281zm-7.65-.466c-.699.007-1.404-.009-2.09.069-.296.048-.566.194-.768.415-.712.756-1.275 1.64-1.66 2.605-.06.158-.06.42.036.551.095.132.35.216.526.216.4-.001.788-.07 1.177-.106.987-.092 1.973-.188 2.96-.27.354-.03.51-.22.49-.55-.027-.458-.072-.916-.11-1.374h.013c-.03-.364-.055-.727-.091-1.09-.029-.29-.192-.466-.483-.466zm.888-3.386c.407 0 .76.281.85.678l.232 1.023H10.65l.234-1.023c.082-.36.381-.626.74-.671l.11-.007zm2.985.46c.129 0 .233.105.233.234s-.104.233-.233.233h-1.392c-.129 0-.233-.104-.233-.233 0-.13.104-.234.233-.234h1.392zm-4.64 0c.13 0 .234.105.234.234s-.105.233-.234.233H8.765c-.129 0-.233-.104-.233-.233 0-.13.104-.234.233-.234h1.314zm3.843-2.114c.087.022.154.092.172.18.019.087-.015.178-.086.232l-.984.945c-.043.041-.1.064-.16.064-.095-.001-.178-.06-.213-.146-.035-.087-.015-.187.052-.253l.983-.945c.058-.068.15-.099.236-.077zm-4.119.084l.907.945c.06.068.076.164.04.248-.036.083-.117.138-.208.141l.002.003c-.063 0-.124-.025-.167-.07l-.907-.946c-.07-.056-.103-.149-.082-.237.022-.088.092-.156.181-.174.089-.019.18.017.234.09zm1.94-.945c.128 0 .232.105.232.234v1.353c0 .128-.105.231-.233.231-.129 0-.233-.104-.233-.233V4.222c0-.13.104-.234.233-.234z" mask="url(#prefix__b)"/>
        <path fill="#FFF" fill-rule="nonzero" d="M9.672 17.387c-1.367 0-2.384 1.108-2.271 2.475.112 1.366 1.31 2.474 2.677 2.474s2.383-1.107 2.27-2.474c-.111-1.367-1.31-2.475-2.676-2.475zm.304 3.712c-.696-.012-1.272-.545-1.338-1.237-.033-.32.072-.638.29-.874.216-.236.524-.369.845-.363.696.011 1.272.544 1.339 1.237.033.319-.073.637-.29.873-.217.237-.525.37-.846.364z"/>
        <path fill="#FFF" fill-opacity=".8" fill-rule="nonzero" d="M12.604 22.011c-.18.144-.38.26-.596.342h5.553l-4.957-.342z"/>
        <path fill="#FFF" fill-opacity=".4" fill-rule="nonzero" d="M13.195 21.283c-.053.103-.113.202-.18.296h3.542l-3.362-.296z"/>
        <path fill="#F54436" fill-opacity=".8" fill-rule="nonzero" d="M27.186 14.965c-.021.149-.044.297-.068.444h8.138l-8.07-.444z"/>
        <path fill="#F54436" fill-opacity=".4" fill-rule="nonzero" d="M27.316 13.661c-.008.134-.017.267-.028.399H33.5l-6.185-.399z"/>
        <path fill="#F54436" fill-opacity=".2" fill-rule="nonzero" d="M27.34 12.455v.256h5.484l-5.484-.256z"/>
        <path fill="#F54436" fill-opacity=".8" fill-rule="nonzero" d="M24.53 22.051l-.18.285h4.313l-4.133-.285z"/>
        <path fill="#F54436" fill-opacity=".4" fill-rule="nonzero" d="M24.96 21.325c-.045.078-.091.156-.137.238h2.834l-2.697-.238z"/>
        <path fill="#F54436" fill-opacity=".2" fill-rule="nonzero" d="M25.253 20.79L27.271 20.79 25.322 20.658z"/>
        <path fill="#F54436" fill-rule="nonzero" d="M56.569 6.861L56.569 24.776 53.626 24.776 53.626 11.723 49.148 21.833 46.844 21.833 42.365 11.723 42.365 24.776 39.422 24.776 39.422 6.861 42.852 6.861 47.996 18.429 53.14 6.861zM62.123 19.555c.204 1.024.66 1.809 1.37 2.354.708.546 1.565.82 2.571.82.64.01 1.274-.14 1.843-.435.546-.29.938-.666 1.178-1.127l2.814-.025c-.363 1.19-1.127 2.216-2.162 2.905-1.05.708-2.29 1.062-3.724 1.062-2.014 0-3.643-.636-4.888-1.907-1.246-1.27-1.868-2.878-1.868-4.823 0-1.928.623-3.532 1.868-4.812 1.244-1.28 2.857-1.92 4.837-1.92 1.877 0 3.404.653 4.581 1.958 1.178 1.305 1.766 2.904 1.766 4.799-.008.385-.042.77-.102 1.151H62.123zm-.026-2.278h7.422c-.17-1.023-.586-1.8-1.244-2.329-.655-.528-1.475-.809-2.317-.793-1.022 0-1.875.281-2.559.845-.683.563-1.117 1.322-1.302 2.277zM84.9 22.242h1.712v6.22H83.9v-3.686h-8.263v3.685h-2.713v-6.219h1.51c.819-1.125 1.228-2.695 1.228-4.709v-5.551h9.24v10.26zm-7.396 0h4.684v-7.729h-3.812v3.02c-.001 1.895-.292 3.465-.872 4.71zM97.918 25.134c-2.678 0-4.9-.891-6.667-2.674-1.766-1.783-2.647-3.997-2.645-6.642 0-2.645.882-4.859 2.645-6.641 1.764-1.782 3.986-2.674 6.667-2.674 2.185 0 4.1.657 5.746 1.97 1.647 1.314 2.658 2.995 3.035 5.042h-4.274c-.263-.907-.845-1.689-1.639-2.2-.818-.547-1.774-.82-2.866-.82-1.586 0-2.853.486-3.8 1.459-.948.972-1.422 2.26-1.42 3.864 0 1.604.473 2.893 1.42 3.865.946.973 2.213 1.46 3.8 1.46 1.09 0 2.045-.274 2.866-.82.794-.512 1.376-1.294 1.639-2.201h4.274c-.376 2.048-1.387 3.728-3.035 5.042-1.647 1.313-3.562 1.97-5.746 1.97zM120.389 24.776L116.038 24.776 112.199 19.175 112.199 24.776 108.36 24.776 108.36 11.982 112.199 11.982 112.199 17.535 115.782 11.982 120.133 11.982 115.859 18.38zM132.11 23.177c-1.315 1.305-2.918 1.957-4.812 1.957-1.893 0-3.497-.652-4.81-1.957-1.314-1.306-1.97-2.905-1.97-4.8 0-1.893.656-3.492 1.97-4.798 1.313-1.305 2.917-1.957 4.811-1.958 1.895 0 3.498.652 4.81 1.958 1.314 1.306 1.971 2.905 1.972 4.799 0 1.894-.657 3.493-1.971 4.799zm-6.91-2.624c.56.562 1.26.843 2.1.843.838 0 1.538-.282 2.1-.844.563-.564.845-1.29.845-2.179 0-.889-.282-1.615-.845-2.178-.563-.564-1.263-.845-2.1-.845-.838 0-1.539.281-2.101.845-.564.563-.845 1.29-.845 2.178 0 .89.282 1.616.847 2.18zM143.909 11.621c1.689 0 3.13.653 4.325 1.958 1.194 1.305 1.79 2.905 1.79 4.799 0 1.894-.597 3.493-1.79 4.799-1.193 1.305-2.635 1.958-4.325 1.957-1.638 0-2.91-.52-3.813-1.561v6.321h-3.84V11.982h3.84v1.203c.904-1.042 2.175-1.563 3.813-1.564zm-2.957 9.035c.57.563 1.3.844 2.188.844.888 0 1.618-.281 2.189-.844.57-.563.855-1.323.855-2.278 0-.956-.285-1.715-.855-2.278-.571-.563-1.3-.844-2.189-.844s-1.618.281-2.188.844c-.57.563-.856 1.322-.856 2.278 0 .955.286 1.715.857 2.278z"/>
    </g>
</svg>
